HIERARCHY
ROOT Hips
{
	OFFSET 0.00000 0.00000 0.00000
	CHANNELS 6 Xposition Yposition Zposition Zrotation Yrotation Xrotation 
	JOINT LHipJoint
	{
		OFFSET 0 0 0
		CHANNELS 3 Zrotation Yrotation Xrotation
		JOINT LeftHip
		{
			OFFSET 1.33213 -1.58186 0.78596
			CHANNELS 3 Zrotation Yrotation Xrotation
			JOINT LeftKnee
			{
				OFFSET 2.29717 -6.31144 0.00000
				CHANNELS 3 Zrotation Yrotation Xrotation
				JOINT LeftAnkle
				{
					OFFSET 2.38430 -6.55082 0.00000
					CHANNELS 3 Zrotation Yrotation Xrotation
					JOINT LeftToe
					{
						OFFSET 0.11863 -0.32594 1.77568
						CHANNELS 3 Zrotation Yrotation Xrotation
						End Site
						{
							OFFSET 0.00000 -0.00000 0.91633
						}
					}
				}
			}
		}
	}
	JOINT RHipJoint
	{
		OFFSET 0 0 0
		CHANNELS 3 Zrotation Yrotation Xrotation
		JOINT RightHip
		{
			OFFSET -1.41575 -1.58186 0.78596
			CHANNELS 3 Zrotation Yrotation Xrotation
			JOINT RightKnee
			{
				OFFSET -2.42012 -6.64922 0.00000
				CHANNELS 3 Zrotation Yrotation Xrotation
				JOINT RightAnkle
				{
					OFFSET -2.47254 -6.79327 0.00000
					CHANNELS 3 Zrotation Yrotation Xrotation
					JOINT RightToe
					{
						OFFSET -0.15219 -0.41813 1.93430
						CHANNELS 3 Zrotation Yrotation Xrotation
						End Site
						{
							OFFSET -0.00000 -0.00000 0.99984
						}
					}
				}
			}
		}
	}
	JOINT lowerback
	{
		OFFSET 0 0 0
		CHANNELS 3 Zrotation Yrotation Xrotation
		JOINT Chest
		{
			OFFSET -0.04717 2.09389 -0.14516
			CHANNELS 3 Zrotation Yrotation Xrotation
			JOINT Chest2
			{
				OFFSET 0.02825 2.09433 -0.11325
				CHANNELS 3 Zrotation Yrotation Xrotation
				JOINT lowerneck
				{
					OFFSET 0 0 0
					CHANNELS 3 Zrotation Yrotation Xrotation
					JOINT Neck
					{
						OFFSET -0.01210 1.39029 0.12448
						CHANNELS 3 Zrotation Yrotation Xrotation
						JOINT Head
						{
							OFFSET 0.09492 1.38365 0.14559
							CHANNELS 3 Zrotation Yrotation Xrotation
							End Site
							{
								OFFSET 0.03402 1.40343 0.03708
							}
						}
					}
				}
				JOINT LeftCollar
				{
					OFFSET 0 0 0
					CHANNELS 3 Zrotation Yrotation Xrotation
					JOINT LeftShoulder
					{
						OFFSET 2.83352 1.10671 -0.20481
CHANNELS 3 Zrotation Xrotation Yrotation
						JOINT LeftElbow
						{
OFFSET 0 -4.771950 -0.000000
CHANNELS 3 Zrotation Xrotation Yrotation
							JOINT LeftWrist
							{
OFFSET 0 -2.984440 0.000000
CHANNELS 3 Zrotation Xrotation Yrotation
								JOINT lhand
								{
									OFFSET 0 0 0
CHANNELS 3 Zrotation Xrotation Yrotation
									JOINT LFingers
									{
OFFSET 0 -0.992280 0.000000
CHANNELS 3 Zrotation Xrotation Yrotation
										End Site
										{
OFFSET 0 -0.800010 0.000000
										}
									}
								}
								JOINT LThumb
								{
OFFSET 0 0.000000 0.000000
CHANNELS 3 Zrotation Xrotation Yrotation
									End Site
									{
OFFSET 0 -0.812220 0.812220
									}
								}
							}
						}
					}
				}
				JOINT RightCollar
				{
					OFFSET 0 0 0
					CHANNELS 3 Zrotation Yrotation Xrotation
					JOINT RightShoulder
					{
						OFFSET -3.23760 1.11106 0.06723
CHANNELS 3 Zrotation Xrotation Yrotation
						JOINT RightElbow
						{
OFFSET 0 -4.620520 0.000000
CHANNELS 3 Zrotation Xrotation Yrotation
							JOINT RightWrist
							{
OFFSET 0 -2.953320 0.000000
CHANNELS 3 Zrotation Xrotation Yrotation
								JOINT rhand
								{
									OFFSET 0 0 0
CHANNELS 3 Zrotation Xrotation Yrotation
									JOINT RFingers
									{
OFFSET 0 -0.990960 0.000000
CHANNELS 3 Zrotation Xrotation Yrotation
										End Site
										{
OFFSET 0 -0.798930 0.000000
										}
									}
								}
								JOINT RThumb
								{
OFFSET 0 0.000000 0.000000
CHANNELS 3 Zrotation Xrotation Yrotation
									End Site
									{
OFFSET 0 -0.811130 0.811130
									}
								}
							}
						}
					}
				}
			}
		}
	}
}
MOTION
Frames: 10
Frame Time: 0.008333333333333333
0.116386 16.266422 21.856732 -182.885127 -9.490904 -172.130705 0.000000 0.000000 0.000000 -23.831383 -1.387389 -11.321594 0.952002 6.210579 17.397469 -1.428980 -20.617068 6.646502 0.856895 5.899720 16.494766 0.000000 0.000000 0.000000 11.492518 5.733145 -38.772476 -6.015957 -14.431367 45.022011 -0.870045 5.044021 -16.638097 -0.430373 -4.034426 11.193552 -5.915164 -2.706589 -7.509992 -0.096591 -3.046436 1.856773 2.813649 -1.732153 6.481060 -4.490393 -2.339059 1.702010 8.334552 -3.050834 -8.693580 3.682069 -1.803459 -2.925805 0.000000 0.000000 0.000000 1.936769 -7.993848 -20.481705 10.732335 -17.876409 1.693133 8.740223 27.353813 -8.962542 0.000000 0.000000 0.000000 -7.125000 0.000000 0.000000 -15.605733 38.588570 -2.537964 0.000000 0.000000 0.000000 2.254427 5.463969 -0.427550 -13.315639 -21.747746 -2.569202 -1.278627 33.007596 6.801627 0.000000 0.000000 0.000000 7.125000 0.000000 0.000000 21.149979 36.023956 4.945632
0.120959 16.270066 21.789995 -183.003381 -9.726911 -172.072114 0.000000 0.000000 0.000000 -23.903550 -1.236767 -10.879982 0.900807 6.043738 16.912807 -1.440341 -20.683805 6.916307 0.912485 6.080959 17.021299 0.000000 0.000000 0.000000 11.174555 5.854436 -38.734427 -5.631472 -14.039700 43.442234 -0.798736 4.568862 -15.938292 -0.266318 -2.926878 8.105057 -6.087293 -2.768967 -7.526176 -0.083372 -3.112708 1.866919 2.913146 -1.773060 6.519180 -4.533979 -2.349777 1.697830 8.391857 -3.064303 -8.726341 3.712008 -1.812176 -2.934415 0.000000 0.000000 0.000000 1.943307 -8.155545 -21.025315 10.878205 -18.100627 1.738398 8.773270 26.959038 -9.020025 0.000000 0.000000 0.000000 -7.125000 0.000000 0.000000 -15.591800 38.646911 -2.512491 0.000000 0.000000 0.000000 2.265681 5.513307 -0.767449 -13.226716 -21.618239 -2.536405 -1.311281 33.199589 6.835281 0.000000 0.000000 0.000000 7.125000 0.000000 0.000000 21.132938 36.057467 4.922696
0.125532 16.273710 21.723259 -183.121634 -9.962918 -172.013523 0.000000 0.000000 0.000000 -23.975717 -1.086146 -10.438371 0.849611 5.876896 16.428146 -1.451702 -20.750541 7.186111 0.968075 6.262198 17.547832 0.000000 0.000000 0.000000 10.856592 5.975726 -38.696379 -5.246986 -13.648034 41.862457 -0.727426 4.093704 -15.238487 -0.102263 -1.819329 5.016562 -6.259422 -2.831345 -7.542360 -0.070153 -3.178980 1.877066 3.012644 -1.813966 6.557300 -4.577565 -2.360495 1.693650 8.449162 -3.077772 -8.759102 3.741946 -1.820893 -2.943025 0.000000 0.000000 0.000000 1.949845 -8.317242 -21.568925 11.024075 -18.324844 1.783663 8.806317 26.564263 -9.077509 0.000000 0.000000 0.000000 -7.125000 0.000000 0.000000 -15.577867 38.705252 -2.487018 0.000000 0.000000 0.000000 2.276934 5.562645 -1.107348 -13.137794 -21.488731 -2.503608 -1.343934 33.391582 6.868935 0.000000 0.000000 0.000000 7.125000 0.000000 0.000000 21.115896 36.090978 4.899759
0.130957 16.276478 21.656096 -183.180539 -10.210821 -171.966952 0.000000 0.000000 0.000000 -23.971557 -0.976843 -9.960148 0.797864 5.696508 15.907549 -1.451845 -20.746385 7.448102 1.028197 6.445791 18.085033 0.000000 0.000000 0.000000 10.608620 6.100197 -38.603639 -4.880781 -13.230124 40.267880 -0.693880 3.952827 -14.892898 -0.049469 -1.431756 3.937641 -6.349690 -2.873940 -7.562701 -0.058137 -3.225845 1.894148 3.067467 -1.842252 6.598500 -4.604398 -2.382181 1.670789 8.511225 -3.105239 -8.771304 3.769381 -1.836622 -2.940041 0.000000 0.000000 0.000000 1.979872 -8.484348 -22.143587 11.166890 -18.543077 1.829003 8.813220 26.199163 -9.148690 0.000000 0.000000 0.000000 -7.125000 0.000000 0.000000 -15.589176 38.775012 -2.461270 0.000000 0.000000 0.000000 2.345258 5.603869 -1.572581 -13.049898 -21.360150 -2.471563 -1.336221 33.621387 6.864601 0.000000 0.000000 0.000000 7.125000 0.000000 0.000000 21.120892 36.086451 4.903543
0.136744 16.278871 21.588752 -183.214122 -10.463798 -171.925509 0.000000 0.000000 0.000000 -23.934831 -0.885169 -9.466305 0.745883 5.510338 15.371620 -1.447200 -20.711980 7.706760 1.090254 6.630388 18.626785 0.000000 0.000000 0.000000 10.390512 6.226025 -38.487565 -4.522376 -12.801016 38.666988 -0.676445 3.954578 -14.698440 -0.044146 -1.351372 3.716139 -6.405030 -2.908094 -7.584815 -0.046633 -3.264429 1.914191 3.103229 -1.865152 6.641014 -4.624083 -2.408547 1.639957 8.575318 -3.138679 -8.774734 3.795747 -1.855342 -2.932110 0.000000 0.000000 0.000000 2.019921 -8.653762 -22.731497 11.308402 -18.758756 1.874375 8.808969 25.846724 -9.225716 0.000000 0.000000 0.000000 -7.125000 0.000000 0.000000 -15.611255 38.849644 -2.435404 0.000000 0.000000 0.000000 2.437932 5.641632 -2.091290 -12.962440 -21.231965 -2.439838 -1.311284 33.867327 6.844058 0.000000 0.000000 0.000000 7.125000 0.000000 0.000000 21.135289 36.065694 4.918726
0.142532 16.281265 21.521409 -183.247705 -10.716775 -171.884067 0.000000 0.000000 0.000000 -23.898104 -0.793496 -8.972461 0.693901 5.324169 14.835691 -1.442556 -20.677576 7.965418 1.152310 6.814985 19.168537 0.000000 0.000000 0.000000 10.172403 6.351852 -38.371490 -4.163971 -12.371909 37.066097 -0.659011 3.956328 -14.503982 -0.038822 -1.270988 3.494636 -6.460369 -2.942248 -7.606930 -0.035129 -3.303014 1.934233 3.138991 -1.888053 6.683528 -4.643768 -2.434913 1.609126 8.639411 -3.172119 -8.778163 3.822113 -1.874063 -2.924178 0.000000 0.000000 0.000000 2.059970 -8.823175 -23.319408 11.449913 -18.974435 1.919748 8.804717 25.494285 -9.302741 0.000000 0.000000 0.000000 -7.125000 0.000000 0.000000 -15.633333 38.924276 -2.409538 0.000000 0.000000 0.000000 2.530606 5.679394 -2.609999 -12.874982 -21.103779 -2.408113 -1.286347 34.113266 6.823516 0.000000 0.000000 0.000000 7.125000 0.000000 0.000000 21.149687 36.044937 4.933910
0.147901 16.282563 21.452454 -183.173993 -10.985959 -171.861312 0.000000 0.000000 0.000000 -23.738586 -0.710941 -8.450006 0.643176 5.123211 14.261871 -1.437911 -20.650003 8.202423 1.173608 6.875953 19.348358 0.000000 0.000000 0.000000 10.060590 6.501910 -38.173963 -3.841717 -11.924017 35.494139 -0.672476 4.178949 -14.640073 -0.046806 -1.384732 3.808121 -6.382865 -2.975823 -7.618831 0.008853 -3.356065 1.932172 3.133833 -1.911501 6.691566 -4.700507 -2.460312 1.599430 8.699895 -3.204946 -8.765870 3.854439 -1.890206 -2.914507 0.000000 0.000000 0.000000 2.076240 -8.912747 -23.821387 11.601768 -19.204001 1.969824 8.825437 25.190209 -9.288197 0.000000 0.000000 0.000000 -7.125000 0.000000 0.000000 -15.612430 38.911688 -2.411092 0.000000 0.000000 0.000000 2.603593 5.762394 -3.125260 -12.787976 -20.975561 -2.377001 -1.235924 34.425805 6.846020 0.000000 0.000000 0.000000 7.125000 0.000000 0.000000 21.195757 36.062651 4.936109
0.153224 16.283742 21.383323 -183.088608 -11.256907 -171.840591 0.000000 0.000000 0.000000 -23.565707 -0.629378 -7.924438 0.592588 4.920643 13.683928 -1.433267 -20.623172 8.437073 1.190471 6.923469 19.488798 0.000000 0.000000 0.000000 9.960342 6.654604 -37.967573 -3.523396 -11.474081 33.925330 -0.689303 4.425603 -14.812131 -0.056238 -1.519598 4.179816 -6.290906 -3.009334 -7.629620 0.056369 -3.410690 1.927707 3.124222 -1.935009 6.695854 -4.761277 -2.485606 1.592035 8.759986 -3.237707 -8.751865 3.887415 -1.906068 -2.904647 0.000000 0.000000 0.000000 2.089924 -8.993631 -24.314015 11.754747 -19.435078 2.020412 8.848873 24.891395 -9.263689 0.000000 0.000000 0.000000 -7.125000 0.000000 0.000000 -15.586850 38.889609 -2.415629 0.000000 0.000000 0.000000 2.674438 5.850317 -3.640146 -12.701018 -20.847340 -2.345954 -1.182728 34.745590 6.873207 0.000000 0.000000 0.000000 7.125000 0.000000 0.000000 21.245274 36.084551 4.936895
0.158415 16.284929 21.313892 -183.007446 -11.525790 -171.818768 0.000000 0.000000 0.000000 -23.397587 -0.547664 -7.397309 0.542543 4.717690 13.105379 -1.429409 -20.601888 8.665821 1.202452 6.957149 19.588382 0.000000 0.000000 0.000000 9.852855 6.809005 -37.753165 -3.210280 -11.024365 32.366048 -0.701969 4.655990 -14.939351 -0.062482 -1.595913 4.390313 -6.203170 -3.044942 -7.644615 0.105773 -3.467516 1.923619 3.118399 -1.959898 6.703601 -4.824391 -2.510533 1.582568 8.814759 -3.270222 -8.739631 3.918936 -1.921505 -2.895029 0.000000 0.000000 0.000000 2.097352 -9.071603 -24.798388 11.907672 -19.665851 2.071151 8.876118 24.596217 -9.240804 0.000000 0.000000 0.000000 -7.125000 0.000000 0.000000 -15.558472 38.869396 -2.418965 0.000000 0.000000 0.000000 2.734911 5.936850 -4.139676 -12.612448 -20.716650 -2.314402 -1.132403 35.060740 6.902195 0.000000 0.000000 0.000000 7.125000 0.000000 0.000000 21.292994 36.108314 4.936160
0.162452 16.286179 21.241832 -182.963145 -11.776660 -171.787329 0.000000 0.000000 0.000000 -23.271009 -0.464637 -6.856557 0.497242 4.511371 12.521542 -1.432410 -20.629004 8.843058 1.171835 6.870085 19.331403 0.000000 0.000000 0.000000 9.682191 6.978312 -37.468784 -2.942583 -10.576573 30.889912 -0.678318 4.744413 -14.675263 -0.040903 -1.161232 3.193985 -6.152296 -3.098853 -7.696310 0.171652 -3.543541 1.922833 3.145622 -1.996839 6.741542 -4.907954 -2.532255 1.555023 8.823119 -3.300589 -8.742846 3.937763 -1.933223 -2.887526 0.000000 0.000000 0.000000 2.050193 -9.124156 -25.210704 12.060116 -19.893963 2.123204 8.936603 24.332772 -9.232087 0.000000 0.000000 0.000000 -7.125000 0.000000 0.000000 -15.505668 38.865466 -2.411820 0.000000 0.000000 0.000000 2.704865 6.011268 -4.505191 -12.509807 -20.564421 -2.278425 -1.107145 35.335439 6.946888 0.000000 0.000000 0.000000 7.125000 0.000000 0.000000 21.325041 36.148327 4.922156
